<?xml version="1.0" encoding="UTF-8" standalone="no"?>
<svg
   width="719.66187"
   height="131.49173"
   viewBox="0 0 719.66186 131.49173"
   version="1.1"
   id="svg1"
   sodipodi:docname="NSQLite (1).svg"
   inkscape:version="1.4.3 (0d15f75042, 2025-12-25)"
   inkscape:export-xdpi="96"
   inkscape:export-ydpi="96"
   xmlns:inkscape="http://www.inkscape.org/namespaces/inkscape"
   xmlns:sodipodi="http://sodipodi.sourceforge.net/DTD/sodipodi-0.dtd"
   xmlns="http://www.w3.org/2000/svg"
   xmlns:svg="http://www.w3.org/2000/svg">
  <defs
     id="defs1">
    <inkscape:path-effect
       effect="fillet_chamfer"
       id="path-effect10"
       nodesatellites_param="F,0,0,1,0,0,0,1 @ F,0,0,1,0,0,0,1 @ F,0,0,1,0,0,0,1 @ F,0,0,1,0,0,0,1 @ F,0,0,1,0,0,0,1 @ F,0,0,1,0,0,0,1 @ F,0,0,1,0,0,0,1 @ F,0,0,1,0,0,0,1 @ F,0,0,1,0,0,0,1 @ F,0,0,1,0,0,0,1 | F,0,0,1,0,0,0,1 @ F,0,0,1,0,0,0,1 @ F,0,0,1,0,0,0,1 @ F,0,0,1,0,0,0,1 @ F,0,0,1,0,0,0,1 @ F,0,0,1,0,0,0,1 @ F,0,0,1,0,0,0,1 @ F,0,0,1,0,0,0,1"
       is_visible="true"
       lpeversion="1"
       radius="0"
       unit="px"
       method="auto"
       mode="F"
       chamfer_steps="1"
       flexible="false"
       use_knot_distance="true"
       apply_no_radius="true"
       apply_with_radius="true"
       only_selected="false"
       hide_knots="false" />
  </defs>
  <sodipodi:namedview
     id="namedview1"
     pagecolor="#ffffff"
     bordercolor="#000000"
     borderopacity="0.25"
     inkscape:showpageshadow="2"
     inkscape:pageopacity="0.0"
     inkscape:pagecheckerboard="0"
     inkscape:deskcolor="#d1d1d1"
     showgrid="false"
     inkscape:zoom="1.1869992"
     inkscape:cx="350.04236"
     inkscape:cy="-62.342081"
     inkscape:window-width="1750"
     inkscape:window-height="981"
     inkscape:window-x="26"
     inkscape:window-y="23"
     inkscape:window-maximized="0"
     inkscape:current-layer="g1">
    <inkscape:page
       x="0"
       y="0"
       width="719.66187"
       height="131.49173"
       id="page2"
       margin="0"
       bleed="0" />
  </sodipodi:namedview>
  <path
     id="path6"
     d="m 687.9851,30.312631 c -16.97805,-0.403856 -34.08029,5.290552 -46.95787,16.471807 -14.47817,12.229048 -25.65312,28.89176 -29.99548,47.443968 -1.03218,7.499704 -1.55913,15.750154 1.89693,22.720324 4.90097,9.40918 15.74658,13.4675 25.79842,14.06901 14.40287,1.11457 43.08026,-2.95706 43.08026,-2.95706 L 697.5185,103.5736 c 0,0 -13.53837,4.83079 -36.08106,4.92986 -6.06221,0.70154 -12.88902,-1.25111 -16.46992,-6.45255 -2.01081,-5.651503 -1.17687,-11.93993 1.03901,-17.410154 21.43355,-0.181519 42.86714,-0.357951 64.30078,-0.529297 5.91327,-9.886754 10.34496,-21.231355 9.16269,-32.945197 -0.42636,-6.967101 -4.29002,-13.800422 -10.9037,-16.562317 -6.37242,-3.09191 -13.56331,-4.127961 -20.5812,-4.291314 z m -9.79102,22.396484 c 13.01087,-1.666775 11.09888,12.960136 7.86126,14.423515 l -28.0247,0.0334 c 3.92277,-8.779252 10.41382,-13.836485 20.16344,-14.456915 z"
     inkscape:label="E"
     sodipodi:nodetypes="cccccccccccccccccc"
     style="fill:#246fa9;fill-opacity:1" />
  <path
     d="m 556.31713,130.68146 c -5.73148,-1.00806 -11.46028,-5.29159 -11.41314,-11.5975 -0.0722,-11.62072 6.35531,-21.867398 10.73009,-32.265493 4.10906,-9.243664 12.60428,-29.060699 12.60428,-29.060699 l -12.03904,-0.573028 10.1682,-23.311914 13.27559,0.193377 7.45402,-17.174744 32.47,-5.86 -10.90284,24.058548 22.55231,-0.301195 -8.76947,23.762647 -22.75,0.56 c 0,0 -10.81839,24.139664 -15.81887,36.372754 -6.60314,14.788227 14.08741,8.163477 21.63887,6.487247 l -13.60606,23.81343 c -11.42746,4.69694 -23.28785,6.97119 -35.59394,4.89654 z"
     id="path4"
     inkscape:label="T"
     sodipodi:nodetypes="scccccccccccccccss"
     style="fill:#246fa9;fill-opacity:1" />
  <path
     d="m 529.81713,24.361459 9.71,-24.18000004 33.18451,0.97034704 -10.25451,23.459653 -31.90343,-0.174941 z"
     id="path10"
     inkscape:label="D"
     sodipodi:nodetypes="cccccc"
     style="fill:#246fa9;fill-opacity:1" />
  <path
     d="m 482.03,131.06859 43.82713,-97.957131 32.62348,0.55125 -41.80275,97.533731 z"
     id="path9"
     inkscape:label="I"
     sodipodi:nodetypes="ccccc"
     style="fill:#246fa9;fill-opacity:1" />
  <path
     d="M 444.61021,0 480.92328,0.32938486 435.586,102.45757 l 55.23113,0.59389 -13.30927,28.14498 -90.69611,0.23484 C 405.92733,88.721273 425.79173,42.853068 444.61021,0 Z"
     id="path8"
     inkscape:label="L"
     sodipodi:nodetypes="ccccccc"
     style="fill:#246fa9;fill-opacity:1" />
  <path
     id="path3"
     d="M 357.47266,0.72265625 C 313.69874,0.6667198 270.8713,29.670696 256.61797,71.397393 c -4.97043,13.704204 -6.92701,30.538987 2.68328,42.766057 9.28245,13.02215 26.02723,17.10747 41.18452,17.2043 23.72822,0.31026 70.19604,0.17769 70.19604,0.17769 l 20.16068,-30.6465 -14.28846,-0.14118 c 0,0 15.16168,-15.460292 20.47713,-24.951672 9.40607,-15.766923 15.20758,-35.929313 7.69127,-53.567707 C 399.00621,8.6792908 383.87065,3.1042067 370.28307,1.5050046 366.0375,0.9506998 361.75348,0.70628927 357.47266,0.72265625 Z M 347.2168,27.119141 c 10.15584,-0.469476 22.50822,4.50114 24.45505,15.594121 1.90204,12.88391 -3.9191,25.59819 -10.7855,36.172989 -10.44164,15.390729 -28.12512,26.918829 -47.21381,26.040499 -8.29032,0.30849 -17.32384,-1.85164 -22.2485,-9.119224 -5.89559,-8.041659 -3.21007,-18.949972 -0.0941,-27.577733 7.87699,-19.25774 24.52322,-35.425229 45.22194,-39.816313 3.49769,-0.794648 7.07549,-1.265066 10.66494,-1.294339 z"
     inkscape:label="Q"
     style="fill:#246fa9;fill-opacity:1"
     inkscape:original-d="M 357.47266,0.72265625 C 313.69874,0.6667198 270.8713,29.670696 256.61797,71.397393 c -4.97043,13.704204 -6.92701,30.538987 2.68328,42.766057 9.28245,13.02215 26.02723,17.10747 41.18452,17.2043 23.72822,0.31026 70.19604,0.17769 70.19604,0.17769 l 20.16068,-30.6465 -14.28846,-0.14118 c 0,0 15.16168,-15.460292 20.47713,-24.951672 9.40607,-15.766923 15.20758,-35.929313 7.69127,-53.567707 C 399.00621,8.6792908 383.87065,3.1042067 370.28307,1.5050046 366.0375,0.9506998 361.75348,0.70628927 357.47266,0.72265625 Z M 347.2168,27.119141 c 10.15584,-0.469476 22.50822,4.50114 24.45505,15.594121 1.90204,12.88391 -3.9191,25.59819 -10.7855,36.172989 -10.44164,15.390729 -28.12512,26.918829 -47.21381,26.040499 -8.29032,0.30849 -17.32384,-1.85164 -22.2485,-9.119224 -5.89559,-8.041659 -3.21007,-18.949972 -0.0941,-27.577733 7.87699,-19.25774 24.52322,-35.425229 45.22194,-39.816313 3.49769,-0.794648 7.07549,-1.265066 10.66494,-1.294339 z"
     inkscape:path-effect="#path-effect10"
     sodipodi:nodetypes="cccccccccccsccccccss"
     transform="translate(-0.18287129,-0.38854104)" />
  <path
     d="m 165.81713,131.07146 c -6.96839,-1.38531 -20.97314,-3.81715 -20.97314,-3.81715 L 156.2151,96.664506 c 0,0 26.53193,10.747784 39.82319,5.961564 5.08096,-2.05923 10.99591,-8.560968 7.38728,-14.125861 C 196.10786,76.250723 185.33989,66.065227 180.07346,52.638607 176.55531,41.158729 183.00886,29.357472 190.29412,20.824506 201.56974,8.0339461 218.36054,0.87250506 235.30999,0.52089011 246.28733,0.30013019 268.04065,4.225917 268.04065,4.225917 l -13.08891,26.705015 c 0,0 -25.11166,-6.852428 -35.6536,0.429807 -7.23668,4.068291 -4.22521,12.894124 0.24298,17.793418 7.45769,10.237067 18.03892,19.166575 20.80517,32.048207 1.23968,12.620249 -6.08282,24.541076 -14.93009,32.949786 -12.30401,11.58647 -29.27645,17.26197 -46.02714,17.20606 -4.51793,0.1079 -9.08194,0.33947 -13.57193,-0.28675 z"
     id="path1"
     inkscape:label="S"
     style="fill:#246fa9;fill-opacity:1"
     sodipodi:nodetypes="cccccccccccccccc" />
  <path
     d="m 57.877129,0.55218503 37.546436,0.0621452 18.922625,81.37681577 34.95309,-81.14896097 34.00712,0.04 L 126.04713,130.89859 87.619274,130.84288 70.052285,52.256146 33.991419,130.80288 0,131.10073 Z"
     id="path7"
     inkscape:label="N"
     sodipodi:nodetypes="ccccccccccc"
     style="fill:#246fa9;fill-opacity:1" />
</svg>
