<svg xmlns="http://www.w3.org/2000/svg" width="719.662" height="131.492">
   <path d="M687.985 30.313c-16.978-.404-34.08 5.29-46.958 16.471-14.478 12.23-25.653 28.892-29.995 47.444-1.032 7.5-1.56 15.75 1.897 22.72 4.9 9.41 15.746 13.468 25.798 14.07 14.403 1.114 43.08-2.957 43.08-2.957l15.712-24.487s-13.539 4.83-36.082 4.93c-6.062.701-12.889-1.252-16.47-6.453-2.01-5.652-1.176-11.94 1.04-17.41q32.15-.273 64.3-.53c5.914-9.886 10.345-21.23 9.163-32.945-.426-6.967-4.29-13.8-10.904-16.562-6.372-3.092-13.563-4.128-20.58-4.291m-9.79 22.396c13.01-1.667 11.098 12.96 7.86 14.424l-28.024.033c3.922-8.78 10.413-13.836 20.163-14.457" style="fill:#246fa9;fill-opacity:1"/>
   <path d="M556.317 130.681c-5.731-1.008-11.46-5.291-11.413-11.597-.072-11.62 6.355-21.867 10.73-32.266 4.11-9.243 12.604-29.06 12.604-29.06l-12.039-.573 10.169-23.312 13.275.193 7.454-17.175 32.47-5.86-10.903 24.059 22.553-.301-8.77 23.762-22.75.56s-10.818 24.14-15.819 36.373c-6.603 14.788 14.088 8.164 21.64 6.487l-13.607 23.814c-11.427 4.697-23.288 6.971-35.594 4.896" style="fill:#246fa9;fill-opacity:1"/>
   <path d="m529.817 24.361 9.71-24.18 33.185.97-10.255 23.46-31.903-.174z" style="fill:#246fa9;fill-opacity:1"/>
   <path d="m482.03 131.069 43.827-97.958 32.624.552-41.803 97.533z" style="fill:#246fa9;fill-opacity:1"/>
   <path d="m444.61 0 36.313.33-45.337 102.128 55.231.593-13.31 28.145-90.695.235C405.927 88.721 425.792 42.853 444.61 0" style="fill:#246fa9;fill-opacity:1"/>
   <path d="M357.473.723C313.699.667 270.87 29.67 256.618 71.397c-4.97 13.705-6.927 30.54 2.683 42.766 9.283 13.023 26.027 17.108 41.185 17.205 23.728.31 70.196.177 70.196.177l20.16-30.646-14.288-.141s15.162-15.46 20.477-24.952c9.406-15.767 15.208-35.93 7.691-53.568-5.716-13.559-20.851-19.134-34.439-20.733a96 96 0 0 0-12.81-.782m-10.256 26.396c10.156-.47 22.508 4.501 24.455 15.594 1.902 12.884-3.92 25.598-10.786 36.173-10.441 15.391-28.125 26.92-47.213 26.04-8.29.31-17.324-1.85-22.249-9.118-5.896-8.042-3.21-18.95-.094-27.578 7.877-19.258 24.523-35.425 45.222-39.817 3.498-.794 7.075-1.265 10.665-1.294" style="fill:#246fa9;fill-opacity:1" transform="translate(-.183 -.389)"/>
   <path d="M165.817 131.071c-6.968-1.385-20.973-3.817-20.973-3.817l11.371-30.59s26.532 10.748 39.823 5.962c5.081-2.06 10.996-8.56 7.388-14.126-7.318-12.25-18.086-22.435-23.353-35.861-3.518-11.48 2.936-23.282 10.221-31.814C201.57 8.034 218.361.873 235.31.52c10.977-.22 32.73 3.705 32.73 3.705L254.953 30.93s-25.112-6.852-35.654.43c-7.237 4.068-4.225 12.894.243 17.793C227 59.391 237.58 68.321 240.346 81.202c1.24 12.62-6.083 24.541-14.93 32.95-12.304 11.587-29.276 17.262-46.027 17.206-4.518.108-9.082.34-13.572-.287" style="fill:#246fa9;fill-opacity:1"/>
   <path d="m57.877.552 37.547.062 18.922 81.377L149.3.842l34.007.04L126.047 130.9l-38.428-.056-17.567-78.587-36.06 78.547L0 131.1Z" style="fill:#246fa9;fill-opacity:1"/>
</svg>