<?xml version="1.0" encoding="UTF-8" standalone="no"?>
<svg
   width="268.04065"
   height="130.97861"
   viewBox="0 0 268.04065 130.97861"
   version="1.1"
   id="svg1"
   sodipodi:docname="NSQLite (1).svg"
   inkscape:version="1.4.3 (0d15f75042, 2025-12-25)"
   inkscape:export-xdpi="96"
   inkscape:export-ydpi="96"
   xmlns:inkscape="http://www.inkscape.org/namespaces/inkscape"
   xmlns:sodipodi="http://sodipodi.sourceforge.net/DTD/sodipodi-0.dtd"
   xmlns="http://www.w3.org/2000/svg"
   xmlns:svg="http://www.w3.org/2000/svg">
  <defs
     id="defs1" />
  <sodipodi:namedview
     id="namedview1"
     pagecolor="#ffffff"
     bordercolor="#000000"
     borderopacity="0.25"
     inkscape:showpageshadow="2"
     inkscape:pageopacity="0.0"
     inkscape:pagecheckerboard="0"
     inkscape:deskcolor="#d1d1d1"
     showgrid="false"
     inkscape:zoom="1.1869992"
     inkscape:cx="350.04236"
     inkscape:cy="-62.342081"
     inkscape:window-width="1750"
     inkscape:window-height="981"
     inkscape:window-x="26"
     inkscape:window-y="23"
     inkscape:window-maximized="0"
     inkscape:current-layer="g1">
    <inkscape:page
       x="0"
       y="0"
       width="268.04065"
       height="130.97861"
       id="page2"
       margin="0"
       bleed="0" />
  </sodipodi:namedview>
  <path
     d="m 165.81713,130.55954 c -6.96839,-1.38531 -20.97314,-3.81715 -20.97314,-3.81715 L 156.2151,96.152589 c 0,0 26.53193,10.747781 39.82319,5.961561 5.08096,-2.05923 10.99591,-8.560965 7.38728,-14.125858 C 196.10786,75.738806 185.33989,65.55331 180.07346,52.12669 176.55531,40.646812 183.00886,28.845555 190.29412,20.312589 201.56974,7.5220293 218.36054,0.36058832 235.30999,0.00897337 246.28733,-0.21178655 268.04065,3.7140002 268.04065,3.7140002 L 254.95174,30.419015 c 0,0 -25.11166,-6.852428 -35.6536,0.429807 -7.23668,4.068291 -4.22521,12.894124 0.24298,17.793418 7.45769,10.237067 18.03892,19.166575 20.80517,32.048207 1.23968,12.620249 -6.08282,24.541073 -14.93009,32.949783 -12.30401,11.58647 -29.27645,17.26197 -46.02714,17.20606 -4.51793,0.1079 -9.08194,0.33947 -13.57193,-0.28675 z"
     id="path1"
     inkscape:label="S"
     style="fill:#246fa9;fill-opacity:1"
     sodipodi:nodetypes="cccccccccccccccc" />
  <path
     d="m 57.877129,0.04026829 37.546436,0.0621452 18.922625,81.37681551 34.95309,-81.14896071 34.00712,0.04 L 126.04713,130.38667 87.619274,130.33096 70.052285,51.744229 33.991419,130.29096 0,130.58881 Z"
     id="path7"
     inkscape:label="N"
     sodipodi:nodetypes="ccccccccccc"
     style="fill:#246fa9;fill-opacity:1" />
</svg>
