<svg xmlns="http://www.w3.org/2000/svg" width="268.041" height="130.979">
   <path d="M165.817 130.56c-6.968-1.386-20.973-3.818-20.973-3.818l11.371-30.59s26.532 10.748 39.823 5.962c5.081-2.06 10.996-8.56 7.388-14.126-7.318-12.25-18.086-22.435-23.353-35.861-3.518-11.48 2.936-23.281 10.221-31.814C201.57 7.522 218.361.36 235.31.009c10.977-.22 32.73 3.705 32.73 3.705l-13.088 26.705s-25.112-6.852-35.654.43c-7.237 4.068-4.225 12.894.243 17.793C227 58.88 237.58 67.81 240.346 80.69c1.24 12.62-6.083 24.542-14.93 32.95-12.304 11.587-29.276 17.262-46.027 17.206-4.518.108-9.082.34-13.572-.286" style="fill:#246fa9;fill-opacity:1"/>
   <path d="m57.877.04 37.547.062 18.922 81.377L149.3.33l34.007.04-57.259 130.017-38.428-.056-17.567-78.587-36.06 78.547L0 130.589Z" style="fill:#246fa9;fill-opacity:1"/>
</svg>